<?xml version="1.0" encoding="UTF-8"?> <svg xmlns="http://www.w3.org/2000/svg" viewBox="5911.529296875 4501.94677734375 275.9482421875 299.046875"><path fill="#B91925" stroke="none" fill-opacity="1" stroke-width="1" stroke-opacity="1" id="tSvg16eae40bee3" d="M 5957.62788 4749.542 C 5957.5813 4749.366 5957.5813 4749.134 5957.46951 4749.032 C 5955.1684 4746.862 5952.82069 4744.756 5950.57548 4742.54 C 5949.5786 4741.557 5948.7215 4740.407 5947.9669 4739.22 C 5947.4825 4738.469 5947.2962 4737.634 5946.113 4737.616 C 5945.7497 4737.606 5945.3118 4736.911 5945.0416 4736.457 C 5943.7467 4734.259 5942.4983 4732.033 5941.1847 4729.742 C 5940.2997 4730.577 5941.1288 4732.014 5939.9363 4732.747 C 5940.5512 4731.458 5939.573 4730.772 5939.0327 4729.854 C 5939.573 4729.603 5940.132 4729.344 5940.7562 4729.047 C 5940.5326 4728.676 5940.3742 4728.425 5940.2251 4728.175 C 5940.1133 4728.407 5940.0295 4728.796 5939.8804 4728.834 C 5939.6568 4728.88 5939.3867 4728.667 5939.1258 4728.565 C 5939.2283 4728.425 5939.3401 4728.286 5939.4426 4728.147 C 5939.7127 4728.175 5939.9829 4728.194 5940.2624 4728.221 C 5939.9363 4727.711 5939.6196 4727.192 5939.2935 4726.682 C 5939.0699 4726.33 5938.9116 4725.829 5938.5855 4725.653 C 5937.0949 4724.8369999999995 5936.3682 4723.362 5935.3807 4722.11 C 5936.2285 4720.459 5936.2285 4720.459 5935.5763 4719.263 C 5935.5018 4719.411 5935.4273 4719.56 5935.3434 4719.736 C 5935.0267 4719.013 5934.7192 4718.326 5934.3559 4717.501 C 5934.0671 4718.632 5933.2193 4718.391 5932.4461 4718.512 C 5932.9026 4719.847 5933.2286 4721.155 5933.7969 4722.342 C 5934.0857 4722.935 5934.8404 4723.399 5935.3714 4723.752 C 5936.1633 4724.271 5936.0049 4724.79 5935.7999 4725.272 C 5935.2782 4726.506 5935.6788 4727.452 5936.4055 4728.444 C 5937.3091 4729.659 5938.1104 4730.948 5938.9488 4732.209 C 5939.014 4732.311 5939.1258 4732.441 5939.1072 4732.534 C 5938.7439 4734.342 5940.3463 4735.344 5940.8493 4736.781 C 5941.8275 4739.526 5944.0355 4741.511 5945.2652 4744.098 C 5945.3957 4744.367 5945.6192 4744.599 5945.8242 4744.821 C 5947.8738 4747.093 5949.9327 4749.347 5951.97292 4751.628 C 5954.67463 4754.661 5957.70241 4757.276 5961.279847 4759.27 C 5963.62754 4760.5869999999995 5965.85412 4762.117 5968.17386 4763.489 C 5973.363 4766.55 5978.813 4769.035 5984.4959 4771.0470000000005 C 5985.7629 4771.493 5986.9461 4772.16 5988.2038 4772.652 C 5990.8682 4773.69 5993.542 4774.729 5996.2437 4775.666 C 6000.1658 4777.029 6004.1159 4778.3369999999995 6008.0753 4779.589 C 6009.7057 4780.108 6011.4105 4780.414 6013.0875 4780.803 C 6013.3297 4780.859 6013.5812 4780.84 6013.8141 4780.915 C 6016.3854 4781.684 6018.9101 4782.705 6021.528 4783.168 C 6024.1738 4783.641 6026.6706 4784.633 6029.3536 4784.967 C 6034.3378 4785.598 6039.2941 4786.414 6044.2503 4787.239 C 6048.9364 4788.018 6053.6504 4788.445 6058.3924 4788.204 C 6063.097 4787.963 6067.802 4788.343 6072.497 4788.157 C 6075.311 4788.046 6078.115 4787.638 6080.928 4787.36 C 6081.236 4787.332 6081.553 4787.137 6081.832 4787.202 C 6084.124 4787.684 6086.332 4786.822 6088.596 4786.766 C 6089.853 4786.739 6091.12 4786.34 6092.331 4785.969 C 6095.238 4785.079 6098.34 4784.633 6100.763 4782.565 C 6100.986 4782.371 6101.35 4782.194 6101.396 4781.9529999999995 C 6101.75 4780.312 6103.026 4779.273 6103.846 4777.956 C 6104.657 4776.64 6105.085 4774.915 6105.151 4773.347 C 6105.356 4767.894 6105.365 4762.441 6105.365 4756.979 C 6105.365 4752.964 6105.328 4748.939 6104.61 4744.951 C 6104.452 4744.061 6104.694 4743.106 6104.592 4742.197 C 6104.489 4741.307 6104.992 4740.222 6103.912 4739.554 C 6103.809 4739.489 6103.8 4739.211 6103.809 4739.035 C 6103.977 4736.735 6104.1630000000005 4734.435 6104.359 4731.885 C 6104.936 4732.237 6105.523 4732.58 6106.073 4732.96 C 6106.324 4733.127 6106.473 4733.452 6106.734 4733.582 C 6109.986 4735.26 6112.436 4737.987 6115.305 4740.147 C 6117.047 4741.464 6118.948 4742.586 6120.765 4743.801 C 6122.134 4744.719 6123.401 4745.814 6124.845 4746.574 C 6128.87 4748.689 6132.326 4751.638 6136.136 4754.049 C 6139.239 4756.015 6142.294 4758.055 6145.35 4760.104 C 6146.673 4760.995 6147.931 4761.987 6149.216 4762.933 C 6150.949 4764.194 6152.645 4765.52 6154.443 4766.689 C 6155.235 4767.199 6156.222 4767.403 6157.145 4767.755 C 6157.452 4767.143 6157.638 4766.707 6157.89 4766.309 C 6158.141 4765.919 6158.356 4765.493 6159.036 4765.91 C 6159.25 4766.04 6159.902 4765.474 6160.387 4765.205 C 6160.387 4764.658 6160.387 4764.12 6160.387 4763.564 C 6160.256 4763.7029999999995 6160.107 4763.851 6159.818 4764.157 C 6159.697 4763.146 6158.896 4762.367 6159.52 4761.356 C 6159.576 4761.264 6159.641 4761.088 6159.595 4761.023 C 6158.328 4759.205 6159.828 4757.406 6159.651 4755.56 C 6159.474 4753.696 6159.883 4751.786 6159.977 4749.894 C 6160.07 4748.058 6160.135 4746.222 6160.1630000000005 4744.376 C 6160.228 4739.127 6160.247 4733.869 6160.331 4728.62 C 6160.377 4725.347 6160.517 4722.073 6160.592 4718.799 C 6160.638 4716.731 6160.629 4714.6630000000005 6160.657 4712.595 C 6160.694 4710.221 6160.834 4707.856 6160.787 4705.482 C 6160.731 4702.366 6160.787 4699.213 6160.312 4696.144 C 6160.051 4694.484 6160.415 4692.981 6160.387 4691.405 C 6160.312 4687.621 6160.172 4683.828 6160.088 4680.045 C 6160.051 4678.264 6160.312 4676.446 6160.014 4674.721 C 6159.651 4672.626 6160.47 4670.456 6159.529 4668.425 C 6159.418 4668.183 6159.557 4667.84 6159.548 4667.544 C 6159.52 4665.197 6159.725 4662.823 6159.39 4660.523 C 6159.148 4658.845 6159.436 4657.129 6159.054 4655.571 C 6158.393 4652.882 6158.868 4650.146 6158.318 4647.475 C 6158.132 4646.566 6158.29 4645.593 6158.29 4644.535 C 6164.057 4641.419 6169.367 4637.682 6174.519 4633.555 C 6174.38 4633.963 6174.24 4634.362 6174.109 4634.77 C 6174.454 4634.205 6175.879 4634.214 6175.06 4632.99 C 6174.985 4632.878 6175.33 4632.276 6175.488 4632.276 C 6176.15 4632.266 6176.718 4632.266 6177.137 4631.608 C 6177.482 4631.07 6177.966 4630.625 6178.581 4629.929 C 6178.581 4631.497 6178.544 4632.851 6178.6 4634.214 C 6178.637 4635.039 6178.851 4635.865 6178.935 4636.69 C 6179.01 4637.423 6179.401 4638.081 6178.777 4638.925 C 6178.358 4639.5 6178.581 4640.576 6178.618 4641.429 C 6178.693 4642.987 6178.842 4644.545 6178.963 4646.121 C 6178.879 4647.253 6178.786 4648.43 6178.721 4649.608 C 6178.665 4650.517 6178.628 4651.426 6178.609 4652.335 C 6178.553 4654.338 6179.364 4656.304 6178.823 4658.316 C 6179.541 4659.346 6179.513 4660.412 6179.0380000000005 4661.525 C 6178.991 4661.627 6178.963 4661.822 6179.019 4661.877 C 6180.305 4663.046 6179.047 4664.502 6179.457 4665.791 C 6179.578 4666.162 6179.233 4666.6630000000005 6179.196 4667.108 C 6179.149 4667.636 6179.066 4668.23 6179.243 4668.703 C 6179.718 4670.001 6180.333 4671.244 6179.597 4672.635 C 6179.541 4672.737 6179.69 4672.95 6179.727 4673.108 C 6179.811 4673.451 6180.025 4673.859 6179.923 4674.137 C 6179.429 4675.5 6179.792 4676.91 6179.615 4678.283 C 6179.41 4679.84 6178.972 4681.389 6179.997 4682.854 C 6180.156 4683.077 6180.09 4683.448 6180.1 4683.754 C 6180.156 4685.21 6180.202 4686.657 6180.258 4688.113 C 6180.258 4688.233 6180.314 4688.372 6180.267 4688.474 C 6179.438 4690.153 6180.333 4691.887 6180.09 4693.603 C 6179.904 4694.947 6180.566 4696.4130000000005 6179.485 4697.627 C 6179.448 4697.665 6179.438 4697.748 6179.448 4697.804 C 6179.541 4699.844 6179.681 4701.884 6179.699 4703.924 C 6179.718 4705.2880000000005 6179.466 4706.66 6179.513 4708.023 C 6179.55 4709.173 6179.83 4710.295 6179.448 4711.445 C 6179.261 4712.011 6179.177 4712.614 6179.019 4713.3 C 6179.727 4713.374 6180.035 4713.69 6179.727 4714.506 C 6179.401 4715.35 6179.196 4716.258 6179.084 4717.158 C 6179.01 4717.742 6178.46 4718.53 6179.569 4718.938 C 6179.755 4719.003 6179.783 4720.024 6179.597 4720.487 C 6178.963 4722.082 6178.563 4723.714 6178.432 4725.421 C 6178.348 4726.608 6178.013 4727.804 6178.0869999999995 4728.973 C 6178.199 4730.725 6177.892 4732.218 6176.848 4733.684 C 6176.289 4734.472 6176.234 4735.622 6176.001 4736.623 C 6175.171 4740.277 6173.485 4743.588 6171.929 4746.954 C 6171.79 4747.27 6171.445 4747.492 6171.2119999999995 4747.761 C 6169.964 4749.171 6169.162 4750.868 6168.333 4752.528 C 6168.268 4752.667 6168.361 4752.88 6168.389 4753.131 C 6168.995 4753.26 6169.61 4753.381 6170.29 4753.52 C 6170.178 4753.937 6170.094 4754.271 6169.936 4754.865 C 6169.47 4754.086 6168.548 4755.041 6168.147 4754.086 C 6168.128 4754.049 6167.597 4754.141 6167.392 4754.299 C 6166.479 4754.985 6165.604 4755.709 6164.542 4756.562 C 6164.802 4757.091 6165.082 4757.647 6165.408 4758.296 C 6165.259 4758.704 6165.045 4759.261 6164.83 4759.826 C 6164.942 4759.928 6165.045 4760.021 6165.156 4760.123 C 6166.349 4759.437 6167.513 4758.686 6168.753 4758.083 C 6169.666 4757.638 6169.74 4757.044 6169.162 4756.098 C 6169.964 4756.191 6170.476 4756.256 6171.324 4756.349 C 6170.979 4755.672 6170.737 4755.18 6170.336 4754.401 C 6171.044 4754.605 6171.5380000000005 4754.744 6172.088 4754.902 C 6174.016 4752.073 6176.001 4749.236 6177.892 4746.342 C 6180.174 4742.855 6181.348 4738.914 6182.289 4734.908 C 6182.988 4731.903 6183.528 4728.852 6184.022 4725.801 C 6184.199 4724.735 6184.134 4723.612 6184.013 4722.537 C 6183.929 4721.832 6184.776 4721.127 6183.985 4720.459 C 6184.609 4718.336 6183.947 4716.166 6184.236 4714.005 C 6184.395 4712.818 6183.966 4711.557 6184.031 4710.286 C 6184.115 4708.672 6183.649 4706.994 6183.947 4705.445 C 6184.264 4703.832 6184.041 4702.301 6184.022 4700.725 C 6184.022 4700.493 6184.022 4700.206 6184.143 4700.02 C 6185.075 4698.629 6184.87 4696.997 6184.73 4695.55 C 6184.432 4692.499 6184.814 4689.476 6184.767 4686.443 C 6184.739 4684.44 6184.516 4682.446 6184.357 4680.443 C 6184.348 4680.286 6184.115 4680.063 6184.162 4679.989 C 6185.485 4678.023 6184.86 4675.825 6184.823 4673.738 C 6184.795 4672.431 6185.419 4670.901 6184.171 4669.751 C 6184.926 4668.879 6184.348 4667.896 6184.329 4666.978 C 6184.311 4666.19 6183.947 4665.401 6183.696 4664.455 C 6184.646 4663.89 6184.637 4662.693 6184.404 4661.655 C 6183.761 4658.687 6184.162 4655.71 6184.115 4652.743 C 6184.003 4646.696 6184.022 4640.641 6184.003 4634.585 C 6183.994 4631.951 6184.031 4629.327 6184.05 4626.693 C 6184.05 4626.572 6184.078 4626.442 6184.059 4626.322 C 6183.416 4623.391 6184.152 4620.628 6185.186 4617.948 C 6186.09 4615.611 6186.37 4613.227 6186.453 4610.77 C 6186.565 4607.524 6186.286 4604.315 6185.773 4601.1159 C 6185.391 4598.6955 6184.534 4596.4048999999995 6183.91 4594.0586 C 6183.435 4592.2595 6182.801 4590.4975 6182.28 4588.717 C 6180.677 4583.2548 6178.423 4578.0337 6175.758 4573.0073 C 6173.634 4569.0103 6170.951 4565.375 6168.194 4561.7861 C 6166.889 4560.089 6165.753 4558.2528 6164.383 4556.6114 C 6162.641 4554.5248 6161.085 4552.262 6158.924 4550.5278 C 6158.132 4549.8879 6157.545 4548.9977 6156.828 4548.2558 C 6156.455 4547.8663 6156.036 4547.5231 6155.589 4547.2171 C 6154.396 4546.4103 6153.427 4545.4273 6152.533 4544.2866 C 6151.76 4543.3036 6150.651 4542.5617 6149.645 4541.7827 C 6148.415 4540.8368 6147.102 4539.9929 6145.863 4539.047 C 6144.083 4537.693 6142.341 4536.2927 6140.59 4534.9016 C 6139.639 4534.1412 6138.736 4533.3158 6137.757 4532.5925 C 6136.584 4531.73 6135.335 4530.951 6134.143 4530.1164 C 6132.96 4529.291 6131.832 4528.3729 6130.603 4527.6125 C 6129.82 4527.1302 6129.121 4526.3883 6128.069 4526.4533 C 6127.91 4526.4625 6127.687 4526.3512 6127.584 4526.2214 C 6125.926 4524.2925 6123.522 4523.6804 6121.333 4522.6974 C 6121.007 4522.549 6120.737 4522.2894 6120.439 4522.0853 C 6120.0380000000005 4521.8071 6119.647 4521.3249 6119.218 4521.2785 C 6116.311 4520.9818 6114.383 4518.4129 6111.523 4518.042 C 6110.694 4516.9755 6109.464 4516.6046 6108.272 4516.1594 C 6107.182 4515.7514 6106.129 4515.2599 6105.057 4514.8147 C 6103.371 4514.1099 6101.704 4513.3773 6099.999 4512.71888 C 6098.517 4512.14391 6097.027 4511.58749 6095.508 4511.14235 C 6093.161 4510.46537 6090.785 4509.85331 6088.409 4509.27834 C 6086.08 4508.70337 6083.742 4508.18404 6081.394 4507.68326 C 6080.556 4507.50706 6079.68 4507.51633 6078.832 4507.35868 C 6075.45 4506.71879 6072.097 4505.89343 6068.696 4505.42974 C 6061.094 4504.38181 6053.5759 4502.47143 6045.8061 4503.0556736 C 6042.2473 4503.324611 6038.6699 4503.398801 6035.139 4503.816118 C 6031.3659 4504.26126 6027.7046 4505.31846 6024.0713 4506.47767 C 6021.5093 4507.29376 6018.9008 4507.94292 6016.3109 4508.66627 C 6012.1279 4509.83476 6007.9542 4510.96615 6003.883 4512.50559 C 6001.2652 4513.4979 5998.4516 4513.9894 5995.7872 4514.8889 C 5992.4706 4516.0018 5989.2193 4517.2908 5985.9306 4518.4871 C 5984.3189 4519.0714 5982.6886 4519.6 5981.0862 4520.2028 C 5979.5397 4520.787 5977.9652 4521.3434 5976.484 4522.0853 C 5971.4439 4524.6171 5966.40377 4527.1488 5961.447532 4529.8474 C 5958.92283 4531.2199 5956.46334 4532.7779 5954.1995 4534.5399 C 5952.73685 4535.6713 5950.90156 4536.4225 5949.8861 4538.1103 C 5949.7743 4538.3051 5949.5134 4538.4256 5949.2992 4538.5462 C 5946.113 4540.438 5943.5324 4543.0718 5940.7375 4545.4458 C 5937.244 4548.4134 5934.0019 4551.6221 5931.2443 4555.2852 C 5930.8903 4555.7489 5930.0332 4556.2775 5930.7971 4557.0843 C 5928.9618 4558.2899 5927.3035 4559.6161 5926.9402 4561.9901 C 5926.9029 4562.2591 5926.521 4562.5466 5926.2321 4562.7042 C 5925.4868 4563.103 5924.9465 4563.409 5925.4868 4564.4662 C 5925.8315 4565.1339 5925.2726 4565.9778 5924.5739 4566.1448 C 5923.3068 4566.4508 5922.8783 4567.4153 5922.3845 4568.3704 C 5920.9405 4571.134 5919.6828 4573.9625 5919.1332 4577.0599 C 5919.0307 4577.6627 5918.509 4578.182 5918.3599 4578.7848 C 5918.0711 4579.944 5917.922 4581.1404 5917.6891 4582.4665 C 5916.0588 4582.0121 5915.7886 4583.7463 5914.9036 4584.5624 C 5914.1862 4585.2208 5913.6739 4586.2316 5913.3664 4587.1775 C 5913.0776 4588.0585 5913.1801 4589.0694 5913.1242 4590.0246 C 5913.1149 4590.2008 5913.2173 4590.4141 5913.1521 4590.5624 C 5912.3882 4592.4079 5912.4255 4594.2719 5912.7422 4596.2194 C 5913.059 4598.1576000000005 5913.1149 4600.1329 5913.2919 4602.0989 C 5913.3012 4602.2195 5913.3105 4602.405 5913.385 4602.4421 C 5914.68 4603.147 5914.1676 4604.26 5914.1117 4605.308 C 5914.0651 4606.059 5914.2794 4606.829 5914.6521 4607.626 C 5914.7825 4607.283 5914.9129 4606.931 5915.1086 4606.411 C 5915.5744 4607.116 5915.3787 4607.756 5915.1086 4608.164 C 5914.1397 4609.629 5914.1583 4610.047 5914.6521 4611.475 C 5914.9502 4612.337 5914.7918 4613.367 5914.7918 4614.312 C 5914.7918 4614.665 5914.5309 4615.036 5914.5868 4615.36 C 5914.857 4616.974 5914.9036 4618.708 5915.5744 4620.155 C 5916.1799 4621.462 5915.8259 4622.585 5915.6675 4623.744 C 5915.5651 4624.504 5915.5744 4625.126 5915.8166 4625.858 C 5916.2451 4627.166 5916.2545 4628.612 5916.9811 4629.846 C 5917.0463 4629.948 5917.1209 4630.115 5917.0836 4630.189 C 5916.0309 4632.062 5917.6426 4633.797 5917.3817 4635.642 C 5917.3351 4635.994 5917.6891 4636.402 5917.8382 4636.792 C 5917.9873 4637.181 5918.3506 4637.71 5918.2108 4637.97 C 5917.596 4639.147 5918.481 4639.954 5918.7512 4640.919 C 5919.0866 4642.134 5919.4872 4643.376 5919.5524 4644.619 C 5919.6456 4646.427 5920.3257 4648.115 5920.2698 4649.988 C 5920.2232 4651.287 5921.1362 4652.613 5921.6951 4654.134 C 5921.3318 4654.635 5921.2014 4655.274 5921.6392 4656.211 C 5922.1051 4657.203 5922.0026 4658.474 5922.1237 4659.624 C 5922.2262 4660.625 5922.3752 4661.599 5923.1578 4662.452 C 5923.1578 4661.497 5923.1578 4660.533 5923.1578 4659.605 C 5924.6391 4659.086 5923.2975 4661.126 5924.5925 4660.857 C 5924.7974 4659.698 5925.0676 4658.446 5924.667 4657.25 C 5924.3875 4656.424 5923.9404 4655.72 5924.49 4654.848 C 5924.5552 4654.746 5924.285 4654.301 5924.0708 4654.18 C 5923.7633 4653.995 5923.6608 4653.985 5923.8565 4653.559 C 5924.0428 4653.141 5924.0521 4652.483 5923.8472 4652.075 C 5922.6361 4649.692 5922.7479 4647.178 5922.9715 4644.637 C 5922.9808 4644.582 5922.9342 4644.498 5922.9621 4644.461 C 5923.3907 4643.831 5923.1392 4643.376 5922.5895 4642.996 C 5922.9715 4642.579 5923.1578 4642.152 5923.223 4641.54 C 5923.2882 4640.937 5922.0026 4640.826 5922.8503 4639.982 C 5923.1392 4639.695 5922.692 4638.73 5922.6547 4638.062 C 5922.6081 4637.358 5922.6454 4636.634 5922.6454 4635.781 C 5922.869 4635.8 5923.1298 4635.827 5923.4093 4635.855 C 5923.4093 4635.243 5923.4093 4634.594 5923.4093 4633.713 C 5923.0646 4634.093 5922.8597 4634.316 5922.4777 4634.733 C 5922.4777 4633.518 5922.4777 4632.545 5922.4777 4631.46 C 5922.692 4631.562 5922.8783 4631.654 5923.1298 4631.775 C 5923.3068 4630.143 5923.4 4628.557 5923.0739 4626.888 C 5922.7944 4625.459 5922.9994 4623.948 5922.9715 4622.473 C 5922.9621 4621.806 5923.018 4621.11 5922.869 4620.47 C 5922.4963 4618.847 5922.869 4617.224 5922.7851 4615.611 C 5922.6826 4613.756 5922.2355 4611.846 5922.5057 4610.047 C 5922.7945 4608.155 5921.397 4606.356 5922.5988 4604.25 C 5923.3907 4605.855 5924.108 4607.311 5924.8254 4608.767 C 5924.806766666667 4608.748333333333 5924.7881333333335 4608.729666666667 5924.7695 4608.711 C 5925.2726 4609.082 5925.7291 4609.416 5925.2819 4610.186 C 5925.1235 4610.455 5925.3564 4610.955 5925.4403 4611.549 C 5925.785 4611.234 5925.962 4611.076 5926.1483 4610.909 C 5926.3067 4611.15 5926.6607 4611.53 5926.5955 4611.623 C 5926.0365 4612.43 5926.698 4612.875 5927.0706 4613.367 C 5927.965 4614.526 5928.9432 4615.62 5929.8189 4616.789 C 5930.6574 4617.901 5931.3281 4619.135 5932.2039 4620.22 C 5935.4925 4624.337 5939.2842 4627.982 5943.2156 4631.478 C 5943.3088 4631.562 5943.4579 4631.58 5943.5231 4631.673 C 5945.1907 4634.195 5947.9483 4635.596 5949.942 4637.812 C 5951.23694 4639.24 5952.90455 4640.399 5954.59079 4641.373 C 5955.86712 4642.106 5957.13411 4642.746 5958.05642 4643.923 C 5958.2148 4644.127 5958.64335 4644.09 5958.86694 4644.267 C 5959.35139 4644.656 5959.789245 4645.11 5960.068732 4645.806 C 5960.4134334 4645.806 5960.869931 4645.667 5961.074888 4645.825 C 5962.61207 4647.03 5964.43806 4647.846 5965.69575 4649.46 C 5966.25473 4650.174 5967.28882 4650.823 5968.16455 4650.907 C 5969.18934 4651.009 5969.77626 4651.611 5970.5495 4652.029 C 5972.2823 4652.984 5973.9686 4654.05 5975.7852 4654.82 C 5977.4156 4655.516 5978.9807 4656.23 5980.3409 4657.389 C 5981.2352 4658.149 5982.26 4658.585 5983.4618 4658.91 C 5985.2133 4659.392 5987.2908 4659.373 5988.5764 4661.052 C 5988.6789 4661.182 5988.8652 4661.339 5989.0143 4661.339 C 5991.1105 4661.386 5992.6942 4662.897 5994.6972 4663.231 C 5996.1878 4663.482 5997.6505 4663.908 5999.1224 4664.251 C 5999.2435 4664.279 5999.4205 4664.335 5999.4764 4664.279 C 6000.9018 4662.86 6002.0384 4664.39 6003.1191 4664.799 C 6005.6531 4665.763 6008.1499 4666.514 6010.9075 4666.217 C 6011.5503 4666.152 6012.3608 4666.273 6012.8639 4666.625 C 6014.5315 4667.803 6016.4972 4667.544 6018.3232 4667.933 C 6019.6275 4668.211 6020.9876 4668.295 6022.3292 4668.415 C 6022.9161 4668.471 6023.5217 4668.397 6024.1179 4668.369 C 6024.416 4668.36 6024.7235 4668.239 6024.9936 4668.295 C 6026.596 4668.647 6028.1798 4669.055 6029.7822 4669.398 C 6030.3225 4669.51 6030.8908 4669.556 6031.4405 4669.528 C 6032.81 4669.454 6034.1794 4669.315 6035.5396 4669.204 C 6035.6607 4669.194 6035.8191 4669.157 6035.903 4669.213 C 6037.3377 4670.159 6039.0146 4669.704 6040.5517 4669.992 C 6040.9523 4670.066 6041.3623 4670.057 6041.7722 4670.094 C 6042.2939 4670.149 6042.8156 4670.205 6043.328 4670.289 C 6043.5609 4670.326 6043.8404 4670.52 6044.0174 4670.456 C 6045.7782 4669.769 6047.511 4670.595 6049.2624 4670.558 C 6050.9766 4670.511 6052.7095 4670.864 6054.4143 4670.752 C 6056.0726 4670.65 6057.8241 4671.281 6059.4078 4670.289 C 6059.5569 4670.196 6059.855 4670.372 6060.0786 4670.381 C 6060.805 4670.428 6061.616 4670.678 6062.24 4670.446 C 6063.6 4669.945 6064.895 4670.001 6066.255 4670.261 C 6066.786 4670.363 6067.364 4670.27 6067.914 4670.214 C 6072.609 4669.751 6077.342 4669.677 6081.962 4668.489 C 6083.854 4668.007 6085.866 4668.007 6087.794 4667.636 C 6090.151 4667.182 6092.48 4666.57 6094.893 4666.004 C 6094.959 4667.108 6094.875 4668.035 6094.157 4668.888 C 6093.72 4669.408 6093.617 4669.945 6094.502 4670.428 C 6095.192 4670.799 6095.834 4671.578 6094.8369999999995 4672.459 C 6094.66 4672.616 6094.651 4672.996 6094.633 4673.284 C 6094.605 4673.738 6094.828 4674.276 6094.018 4674.313 C 6093.859 4674.323 6093.598 4674.777 6093.58 4675.037 C 6093.505 4676.437 6093.477 4677.847 6093.496 4679.247 C 6093.496 4679.432 6093.943 4679.572 6094.046 4679.803 C 6094.26 4680.258 6094.456 4680.74 6094.493 4681.232 C 6094.502 4681.352 6093.859 4681.519 6093.356 4681.723 C 6093.608 4682.029 6093.831 4682.298 6094.167 4682.697 C 6093.561 4683.411 6093.421 4684.181 6094.036 4685.275 C 6094.372 4685.868 6095.033 4687.259 6093.524 4687.834 C 6093.384 4688.855 6093.17 4689.884 6093.123 4690.9130000000005 C 6093.039 4692.889 6092.984 4694.882 6093.058 4696.858 C 6093.133 4698.87 6093.142 4700.873 6092.946 4702.876 C 6093.03 4702.691 6093.123 4702.515 6093.328 4702.079 C 6093.487 4703.739 6093.682 4705.102 6093.151 4706.465 C 6093.021 4706.799 6092.965 4707.179 6092.965 4707.541 C 6092.937 4709.424 6092.937 4711.306 6092.928 4713.198 C 6092.918 4714.1630000000005 6092.918 4714.1630000000005 6093.608 4714.932 C 6092.257 4716.787 6092.909 4718.901 6092.844 4720.923 C 6093.161 4721.034 6093.44 4721.127 6093.943 4721.294 C 6093.505 4721.619 6093.207 4721.841 6093.049 4721.9619999999995 C 6093.095 4723.334 6093.021 4724.623 6093.216 4725.866 C 6093.393 4726.97 6093.878 4728.017 6094.2880000000005 4729.279 C 6093.133 4729.974 6093.598 4731.347 6093.654 4732.589 C 6093.71 4733.749 6093.85 4734.899 6094.027 4736.048 C 6094.111 4736.577 6094.353 4737.078 6094.558 4737.699 C 6094.465 4737.773 6094.055 4737.959 6093.915 4738.256 C 6093.785 4738.552 6093.906 4738.979 6093.9619999999995 4739.341 C 6094.195 4741.0380000000005 6094.66 4742.735 6094.605 4744.423 C 6094.558 4745.804 6094.511 4747.168 6094.651 4748.54 C 6094.875 4750.682 6095.136 4752.834 6095.322 4754.976 C 6095.387 4755.69 6095.266 4756.423 6095.219 4757.146 C 6095.182 4757.805 6095.769 4758.315 6095.48 4759.094 C 6095.247 4759.743 6095.536 4760.559 6095.424 4761.282 C 6095.21 4762.757 6095.76 4764.222 6095.424 4765.706 C 6095.35 4766.049 6095.797 4766.503 6096.002 4766.93 C 6095.35 4767.607 6095.098 4768.775 6095.723 4769.573 C 6096.738 4770.881 6096.235 4772.374 6096.403 4773.765 C 6096.477 4774.349 6095.844 4775.174 6095.322 4775.657 C 6093.72 4777.15 6091.614 4777.632 6089.564 4778.188 C 6088.922 4778.364 6088.279 4778.55 6087.636 4778.726 C 6087.347 4778.8 6087.04 4778.967 6086.77 4778.921 C 6084.021 4778.448 6081.329 4778.8 6078.627 4779.375 C 6076.503 4779.83 6074.342 4779.811 6072.152 4779.691 C 6069.153 4779.524 6066.116 4779.505 6063.125 4779.755 C 6061.197 4779.9130000000005 6059.324 4779.6630000000005 6057.4142 4779.691 C 6056.0167 4779.718 6054.6193 4779.551 6053.2312 4779.57 C 6052.6349 4779.579 6051.9735 4779.691 6051.4704 4779.978 C 6050.7158 4780.423 6050.1661 4780.748 6049.8587 4779.579 C 6049.8214 4779.449 6049.486 4779.357 6049.2718 4779.32 C 6047.6973 4779.06 6046.1229 4778.791 6044.5391 4778.606 C 6044.1012 4778.55 6043.4771 4778.624 6043.2069 4778.893 C 6042.7504 4779.357 6042.415 4779.218 6041.9026 4779.088 C 6040.7381 4778.8 6039.2847 4779.338 6038.5767 4777.845 C 6037.4308 4777.752 6036.2756 4777.576 6035.1297 4777.604 C 6034.5335 4777.623 6033.9559 4778.021 6033.4994 4777.298 C 6033.4248 4777.177 6033.1267 4777.085 6033.0056 4777.131 C 6031.7386 4777.65 6030.5741 4776.704 6029.3164 4776.881 C 6028.9623 4776.927 6028.4686 4776.361 6028.1705 4776.454 C 6027.4997 4776.677 6027.2761 4776.102 6026.8382 4775.963 C 6024.8632 4775.332 6022.8788 4774.729 6020.8759 4774.228 C 6020.5311 4774.145 6020.056 4774.562 6019.5436 4774.794 C 6018.2859 4773.384 6016.5624 4772.809 6014.6246 4772.689 C 6014.0284 4772.652 6013.4694 4772.262 6012.8732 4772.188 C 6011.5689 4772.021 6010.246 4771.975 6008.9417 4771.854 C 6008.2896 4771.789 6007.6468 4771.669 6006.9947 4771.567 C 6006.8735 4771.548 6006.7245 4771.539 6006.6406 4771.474 C 6004.4699 4769.656 6004.47 4769.656 6002.3924 4769.332 C 6002.2154 4769.304 6002.0384 4769.23 6001.8521 4769.174 C 6001.6564 4769.406 6001.4608 4769.638 6001.2838 4769.842 C 6001.0695 4769.768 6000.8832 4769.758 6000.8552 4769.684 C 6000.4826 4768.766 5999.8491 4768.293 5998.8243 4768.098 C 5997.0263 4767.755 5995.2469 4767.282 5993.4861 4766.782 C 5992.5638 4766.522 5991.6974 4766.086 5990.803 4765.734 C 5989.6851 4765.298 5988.6416 4764.667 5987.3467 4764.7880000000005 C 5987.0579 4764.816 5986.6107 4764.083 5986.4337 4764.157 C 5984.9152 4764.7880000000005 5984.0208 4762.581 5982.4929 4763.332 C 5982.3811 4763.387 5982.0644 4762.979 5981.8222 4762.822 C 5981.4681 4762.59 5981.0582 4762.154 5980.7415 4762.2 C 5979.5863 4762.377 5978.99 4761.199 5977.9373 4761.199 C 5976.81 4761.199 5976.074 4760.262 5975.1424 4759.947 C 5972.5618 4759.084 5970.48429 4757.369 5968.11797 4756.154 C 5965.72369 4754.93 5963.45985 4753.455 5961.121472 4752.111 C 5960.35754 4751.675 5959.90105 4750.645 5958.7831 4750.868C 5958.36387 4750.488 5958.00053 4750.015 5957.62788 4749.542Z M 6083.267 4656.202 C 6083.248 4655.367 6081.907 4654.978 6082.484 4653.874 C 6083.09 4654.597 6084.003 4655.145 6083.267 4656.211 C 6084.636 4655.534 6084.347 4656.7119999999995 6084.823 4657.639C 6084.114 4656.981 6083.686 4656.591 6083.267 4656.202Z M 6099.002 4664.112 C 6098.555 4663.148 6096.645 4662.777 6097.763 4661.145 C 6097.8 4661.098 6097.698 4660.876 6097.623 4660.848 C 6096.691 4660.533 6096.868 4659.707 6096.701 4659.012 C 6096.431 4657.908 6096.049 4657.741 6094.856 4658.029 C 6091.819 4658.771 6088.791 4659.503 6085.745 4660.217 C 6083.611 4660.718 6081.31 4660.458 6079.335 4661.683 C 6079.214 4661.757 6078.981 4661.636 6078.804 4661.655 C 6074.714 4662.007 6070.625 4662.387 6066.535 4662.73 C 6064.224 4662.925 6061.914 4663.139 6059.5942 4663.185 C 6055.8583 4663.25 6052.1039 4663.055 6048.3681 4663.203 C 6043.2441 4663.407 6038.1761 4662.981 6033.1081 4662.313 C 6030.7324 4661.998 6028.3568 4661.738 6025.9718 4661.469 C 6024.3322 4661.284 6022.6739 4661.2 6021.0435 4660.931 C 6016.3668 4660.171 6011.6994 4659.383 6007.0505 4658.511 C 6003.3241 4657.815 5999.5975 4657.046 5995.9176 4656.155 C 5994.0823 4655.71 5992.3309 4654.95 5990.5515 4654.31 C 5988.1293 4653.438 5985.6977 4652.613 5983.3128 4651.639 C 5981.6731 4650.971 5980.0987 4650.137 5978.5335 4649.302 C 5975.6734 4647.772 5972.7947 4646.27 5970.00916 4644.61 C 5968.27634 4643.58 5966.76711 4642.189 5965.0436 4641.132 C 5961.112148 4638.702 5957.63719 4635.716 5954.22744 4632.656 C 5951.13445 4629.892 5948.1998 4626.952 5945.1255 4624.161 C 5941.2872 4620.665 5937.9613 4616.705 5934.7006 4612.699 C 5934.0951 4611.957 5933.6106 4611.104 5933.0516 4610.325 C 5932.1107 4609.008 5930.9275 4607.802 5930.2381 4606.365 C 5928.9804 4603.74 5928.0302 4600.9768 5926.9215 4598.2875 C 5926.6514 4597.6383 5926.2228 4597.0448 5925.8781 4596.4234 C 5925.4962 4595.7372 5925.1608 4595.0324 5924.7509 4594.3647 C 5924.4155 4593.8175 5925.1515 4593.02 5924.313 4592.6027 C 5924.2757 4592.5841 5924.285 4592.3245 5924.3502 4592.2595 C 5925.1701 4591.4991 5924.7509 4590.8221 5924.313 4590.0524 C 5924.108 4589.7 5924.0801 4589.125 5924.2105 4588.7263 C 5924.5273 4587.7432 5924.8068 4585.499 5924.6484 4584.7386 C 5924.4993 4583.9967 5924.3503 4583.2362 5924.3596 4582.485 C 5924.3689 4581.9564 5924.4527 4581.4278 5925.3471 4581.3258 C 5926.0923999999995 4581.2424 5926.5023 4579.944 5926.1855 4579.4247 C 5925.5148 4578.349 5925.5148 4578.349 5925.8502 4577.7184 C 5926.1203 4577.199 5926.3998 4576.689 5926.6793 4576.1604 C 5926.875 4576.3273 5927.0147 4576.4479 5927.1358 4576.5499 C 5927.9463 4575.0475 5927.8625 4573.1742 5929.8096 4572.3952 C 5929.4369 4571.6533 5929.2413 4570.8929 5930.499 4570.7816 C 5930.6294 4570.7723 5930.8716 4570.0861 5930.7692 4569.845 C 5930.2847 4568.7878 5930.9462 4568.0644 5931.6449 4567.7491 C 5932.4181 4567.406 5932.6231 4566.7661 5933.0982 4566.2653 C 5933.8342 4565.4863 5933.592 4563.984 5935.1105 4563.8727 C 5934.8124 4562.528 5935.418 4561.6934 5936.2751 4560.8958 C 5937.2812 4559.9499 5938.5296 4559.0411 5939.0327 4557.8448 C 5939.8618 4555.8695 5941.6039 4554.7288 5942.7219 4553.0503 C 5943.4113 4552.0116 5944.5665 4551.3161 5945.2187 4550.2032 C 5945.3025 4550.0641 5945.6565 4549.9436 5945.8056 4550.0085 C 5946.3832 4550.2496 5946.4391 4549.9065 5946.7186 4549.517 C 5947.2962 4548.7287 5947.9576 4547.755 5948.7961 4547.4675 C 5950.119 4547.0131 5950.99472 4546.2248 5951.80523 4545.2233 C 5952.14993 4544.7967 5952.52258 4544.3052 5952.99771 4544.1011 C 5955.18702 4543.1552 5956.92916 4541.6436 5958.59676 4540.0114 C 5958.94147 4539.6776 5959.31412 4539.353 5959.724036 4539.1211 C 5962.26737 4537.6374 5964.8107 4536.1536 5967.37266 4534.7069 C 5968.70489 4533.9557 5970.04643 4533.2138 5971.4252 4532.5554 C 5974.7977 4530.9325 5978.1888 4529.3467 5981.5799 4527.7608 C 5981.8967 4527.6125 5982.288 4527.6032 5982.642 4527.5197 C 5983.2196 4527.3806 5983.8252 4527.3157 5984.3562 4527.0746 C 5985.7536 4526.4625 5987.0486 4525.563 5988.5019 4525.1642 C 5990.2254 4524.7005 5991.8092 4523.9864 5993.4395 4523.3187 C 5994.2221 4523.0034 5995.163 4522.9478 5995.8431 4522.4934 C 5996.8027 4521.8535 5997.7623 4521.6587 5998.8709 4521.6309 C 6000.0261 4521.6031 6001.2558 4521.5475 6001.7217 4520.212 C 6003.2216 4520.6479 6004.4234 4519.8967 6005.6624 4519.5258 C 6008.5505 4518.6541 6011.3733 4517.5969 6014.2893 4516.8271 C 6018.0717 4515.8349 6021.8168 4514.6571 6025.5712 4513.5535 C 6026.1023 4513.3959 6026.596 4513.1084 6027.127 4512.98782 C 6031.6641 4511.98626 6036.1917 4510.96615 6040.8126 4510.35409 C 6041.4275 4510.27062 6042.0889 4509.90895 6042.5641 4509.49163 C 6043.4677 4508.67554 6044.6136 4508.58281 6045.6291 4508.60135 C 6047.2222 4508.63845 6048.927 4508.43443 6050.3897 4509.40817 C 6050.5201 4509.49163 6050.7437 4509.48236 6050.9114 4509.44526 C 6052.9517 4508.95376 6054.8522 4509.35253 6056.6875 4510.27062 C 6056.939 4510.39118 6057.1906 4510.52101 6057.4514 4510.58593 C 6059.5848 4511.10526 6061.728 4511.64313 6063.87 4512.11609 C 6064.886 4512.33866 6065.948 4512.36648 6066.963 4512.6076 C 6069.227 4513.1269 6071.472 4513.7854 6073.746 4514.2769 C 6075.292 4514.6107 6076.904 4514.6849 6078.45 4515.028 C 6080.956 4515.5752 6083.397 4516.4655 6085.922 4516.79 C 6087.748 4517.0219 6089.322 4517.6989 6090.934 4518.4222 C 6091.158 4518.5242 6091.409 4518.6355 6091.642 4518.617 C 6092.844 4518.4779 6093.757 4519.0992 6094.707 4519.6742 C 6095.117 4519.9153 6095.583 4520.0822 6096.03 4520.2584 C 6099.048 4521.4362 6102.113 4522.5027 6105.067 4523.8288 C 6107.722 4525.0158 6110.135 4526.6851 6112.846 4527.8258 C 6115.697 4529.0313 6118.37 4530.6357 6121.119 4532.0917 C 6121.426 4532.2586 6121.678 4532.5368 6121.957 4532.7687 C 6122.274 4533.0283 6122.544 4533.4085 6122.907 4533.5384 C 6124.622 4534.1597 6126.215 4534.9202 6127.565 4536.1814 C 6128.367 4536.9326 6129.336 4537.5168 6130.202 4538.2031 C 6130.77 4538.6575 6131.32 4539.1397 6131.851 4539.6312 C 6132.755 4540.4566 6133.63 4541.2912 6134.534 4542.1258 C 6134.804 4542.3762 6135.056 4542.6915 6135.372 4542.8121 C 6137.012 4543.452 6138.214 4544.6854 6139.528 4545.7704 C 6139.9 4546.0764 6140.133 4546.6236 6140.534 4546.7812 C 6143.468 4547.9034 6145.276 4550.4814 6147.651 4552.3084 C 6149.692 4553.8756 6151.229 4556.0828 6152.989 4558.0024 C 6157.1630000000005 4562.5558 6160.061 4568.0088 6163.685 4572.9517 C 6165.846 4575.91 6167.029 4579.4618 6168.2119999999995 4582.9395 C 6170.197 4588.7912 6172.069 4594.68 6173.234 4600.7543 C 6173.55 4602.4328 6173.578 4604.158 6173.839 4605.846 C 6174.557 4610.547 6173.532 4614.943 6171.762 4619.283 C 6169.749 4624.217 6165.725 4627.546 6162.371 4631.4130000000005 C 6161.84 4632.016 6160.918 4632.266 6160.219 4632.739 C 6157.499 4634.594 6154.7880000000005 4636.486 6152.132 4638.322 C 6150.493 4637.478 6149.011 4636.653 6147.474 4635.939 C 6144.763 4634.678 6142.034 4633.481 6139.295 4632.276 C 6137.0869999999995 4631.293 6134.869 4630.31 6132.643 4629.373 C 6131.199 4628.761 6129.699 4628.269 6128.255 4627.657 C 6126.066 4626.739 6123.848 4625.858 6121.724 4624.801 C 6119.572 4623.725 6117.113 4623.475 6115.054 4622.177 C 6114.402 4621.768 6113.554 4621.648 6112.781 4621.453 C 6111.746 4621.194 6110.61 4621.175 6109.669 4620.721 C 6107.433 4619.654 6105.011 4619.181 6102.756 4618.096 C 6099.812 4616.677 6096.496 4616.028 6093.328 4615.082 C 6091.064 4614.414 6088.773 4613.858 6086.518 4613.153 C 6084.543 4612.541 6082.643 4611.614 6080.63 4611.169 C 6077.491 4610.473 6074.556 4609.101 6071.323 4608.655 C 6068.547 4608.275 6065.873 4607.227 6063.116 4606.736 C 6060.61 4606.291 6059.2495 4606.986 6059.8643 4609.87 C 6059.883 4609.963 6059.8177 4610.084 6059.8084 4610.149 C 6059.324 4610.288 6058.8675 4610.417 6058.4855 4610.529 C 6058.9141 4611.02 6059.5383 4611.595 6059.4637 4611.688 C 6059.1283 4612.179 6059.3333 4612.486 6059.501 4612.94 C 6059.6687 4613.385 6059.9388 4613.969 6059.3147 4614.433 C 6059.1656 4614.544 6059.2215 4615.101 6059.3519 4615.388 C 6059.678 4616.112 6060.06 4616.816 6060.4699 4617.493 C 6061.634 4619.413 6062.827 4621.323 6063.991 4623.243 C 6064.914 4624.755 6065.808 4626.285 6066.712 4627.815 C 6068.146 4630.235 6069.6 4632.656 6070.997 4635.095 C 6071.994 4636.838 6072.926 4638.619 6073.867 4640.399 C 6074.714 4642.013 6075.525 4643.645 6076.354 4645.268 C 6076.801 4646.14 6077.202 4647.039 6077.677 4647.893 C 6078.562 4649.469 6079.643 4650.953 6080.36 4652.604 C 6081.059 4654.199 6082.316 4655.339 6083.22 4656.749 C 6083.677 4657.472 6084.366 4658.047 6085.018 4658.761 C 6085.242 4658.307 6085.335 4658.103 6085.437 4657.89 C 6087.03 4659.058 6087.03 4659.058 6087.757 4658.019 C 6088.335 4659.244 6089.164 4658.298 6089.919 4658.446 C 6089.816 4657.435 6089.723 4656.601 6089.62 4655.627 C 6090.068 4655.905 6090.375 4656.091 6090.645 4656.267 C 6091.009 4655.46 6091.307 4654.774 6091.661 4653.976 C 6090.729 4652.2880000000005 6089.863 4650.461 6088.782 4648.774 C 6086.444 4645.138 6084.562 4641.262 6082.531 4637.46 C 6079.335 4631.469 6075.45 4625.877 6071.77 4620.183 C 6071.184 4619.283 6070.634 4618.365 6069.898 4617.187 C 6070.69 4617.271 6071.118 4617.252 6071.51 4617.363 C 6072.637 4617.679 6073.736 4618.059 6074.863 4618.374 C 6076.736 4618.894 6078.683 4619.209 6080.472 4619.932 C 6084.282 4621.462 6088.242 4622.538 6092.108 4623.92 C 6094.688 4624.838 6097.409 4625.395 6099.784 4626.888 C 6100.437 4627.296 6101.303 4627.323 6102.02 4627.648 C 6103.762 4628.427 6105.747 4628.455 6107.424 4629.521 C 6108.57 4630.245 6109.939 4630.912 6111.253 4631.005 C 6113.451 4631.153 6115.138 4632.619 6117.252 4632.915 C 6118.1 4633.036 6119.078 4633.463 6119.628 4634.084 C 6120.476 4635.039 6121.566 4634.622 6122.479 4635.011 C 6125.851 4636.44 6129.485 4637.209 6132.671 4639.12 C 6133.742 4639.76 6134.99 4640.214 6136.211 4640.501 C 6138.81 4641.113 6141.27 4642.152 6143.329 4643.701 C 6144.596 4644.656 6145.881 4645.509 6147.223 4646.335 C 6147.418 4646.455 6147.502 4646.743 6147.698 4646.854 C 6148.816 4647.503 6149.617 4648.792 6151.387 4648.579 C 6151.853 4651.797 6152.328 4655.015 6152.794 4658.242 C 6152.803 4658.298 6152.757 4658.363 6152.757 4658.418 C 6152.757 4661.349 6152.514 4664.307 6152.831 4667.2 C 6153.213 4670.743 6153.045 4674.276 6153.166 4677.81 C 6153.213 4679.266 6153.213 4680.722 6153.2880000000005 4682.177 C 6153.399 4684.357 6153.614 4686.536 6153.679 4688.725 C 6153.753 4691.46 6153.52 4694.224 6153.772 4696.941 C 6154.173 4701.346 6154.145 4705.733 6153.949 4710.128 C 6153.828 4712.818 6153.567 4715.507 6153.52 4718.197 C 6153.474 4721.368 6153.595 4724.549 6153.632 4727.721 C 6153.688 4732.367 6153.679 4737.022 6153.809 4741.659 C 6153.921 4745.934 6154.182 4750.2 6154.359 4754.475 C 6154.406 4755.533 6154.368 4756.599 6154.368 4757.842 C 6153.884 4757.601 6153.511 4757.461 6153.176 4757.239 C 6152.57 4756.849 6152.039 4756.145 6151.406 4756.061 C 6150.241 4755.903 6151.014 4754.883 6150.446 4754.466 C 6148.471 4753.029 6146.552 4751.498 6144.605 4750.024 C 6142.369 4748.327 6140.133 4746.63 6137.879 4744.97 C 6136.407 4743.885 6134.916 4742.8 6133.379 4741.798 C 6130.221 4739.721 6126.96 4737.81 6123.886 4735.622 C 6121.65 4734.027 6119.675 4732.079 6117.532 4730.354 C 6116.051 4729.158 6114.998 4727.396 6112.967 4726.886 C 6112.622 4726.803 6112.082 4726.2 6112.147 4726.024 C 6112.455 4725.198 6111.765 4724.939 6111.392 4724.586 C 6110.33 4723.566 6109.231 4722.592 6108.076 4721.693 C 6107.563 4721.294 6106.902 4721.034 6106.278 4720.83 C 6105.197 4720.469 6104.089 4720.2 6102.887 4719.857 C 6102.831 4718.874 6102.747 4717.9 6102.719 4716.935 C 6102.607 4713.81 6102.542 4710.694 6102.402 4707.569 C 6102.328 4705.983 6102.113 4704.407 6101.964 4702.821 C 6101.713 4700.206 6101.433 4697.59 6101.2 4694.966 C 6100.949 4692.165 6100.688 4689.374 6100.511 4686.573 C 6100.325 4683.717 6100.241 4680.861 6100.092 4678.004 C 6100.064 4677.494 6099.943 4677.012 6099.058 4677.133 C 6099.058 4678.153 6099.058 4679.182 6099.058 4680.221 C 6098.918 4680.221 6098.778 4680.221 6098.639 4680.221 C 6098.573 4678.496 6098.489 4676.771 6098.434 4675.037 C 6098.34 4672.403 6098.406 4669.751 6098.117 4667.145 C 6097.977 4665.874 6098.173 4664.928 6099.002 4664.047C 6099.002 4664.068666666667 6099.002 4664.090333333334 6099.002 4664.112Z M 5920.0927 4578.5344000000005 C 5919.7946 4576.7817 5920.4747 4575.3072 5921.6579 4573.6472Z M 6166.992 4757.619 C 6166.461 4757.387 6166.06 4757.211 6165.464 4756.961 C 6166.004 4756.794 6166.349 4756.766 6166.601 4756.599 C 6166.899 4756.404 6167.132 4756.089 6167.383 4755.82 C 6167.467 4755.876 6167.56 4755.941 6167.644 4755.996C 6167.439 4756.516 6167.225 4757.044 6166.992 4757.619Z M 5921.1827 4610.724 C 5921.7417 4611.605 5921.928 4612.448 5920.9033 4613.45Z M 5921.0803 4603.879 C 5920.9126 4603.842 5920.7449 4603.796 5920.5865 4603.759 C 5920.7542 4603.119 5920.9219 4602.4699 5921.0989 4601.83 C 5921.2014 4601.8486 5921.3132 4601.8764 5921.4156 4601.8949C 5921.3038 4602.5626 5921.1921 4603.221 5921.0803 4603.879Z M 6097.101 4773.524 C 6096.98 4773.514 6096.859 4773.505 6096.747 4773.496 C 6096.803 4772.689 6096.859 4771.882 6096.915 4771.075 C 6096.98 4771.075 6097.045 4771.085 6097.101 4771.085C 6097.101 4771.891 6097.101 4772.707 6097.101 4773.524Z M 5923.4 4659.216 C 5923.3162 4659.234 5923.2416 4659.253 5923.1578 4659.281 C 5923.0739 4659.03 5922.9249 4658.789 5922.9156 4658.539 C 5922.9063 4658.251 5923.0087 4657.964 5923.0646 4657.676 C 5923.1764 4657.695 5923.2882 4657.704 5923.4 4657.723C 5923.4 4658.223 5923.4 4658.724 5923.4 4659.216Z M 6180.957 4674.341 C 6180.957 4673.534 6180.957 4673.117 6180.957 4672.384Z M 5921.5647 4615.268 C 5921.4343 4615.295 5921.3132 4615.323 5921.1827 4615.351 C 5921.1827 4614.943 5921.1827 4614.535 5921.1827 4614.127 C 5921.2759 4614.127 5921.3784 4614.118 5921.4715 4614.118C 5921.5088 4614.498 5921.5368 4614.887 5921.5647 4615.268Z M 6103.548 4771.251 C 6103.651 4771.289 6103.762 4771.326 6103.865 4771.372 C 6103.753 4771.724 6103.641 4772.077 6103.53 4772.429 C 6103.418 4772.392 6103.315 4772.355 6103.203 4772.318C 6103.325 4771.956 6103.436 4771.604 6103.548 4771.251Z M 6180.5 4718.187 C 6180.612 4718.178 6180.733 4718.169 6180.845 4718.15 C 6180.892 4718.438 6180.938 4718.725 6180.985 4719.013 C 6180.873 4719.031 6180.761 4719.04 6180.659 4719.059C 6180.603 4718.772 6180.547 4718.475 6180.5 4718.187Z"></path><path fill="#B91925" stroke="none" fill-opacity="1" stroke-width="1" stroke-opacity="1" id="tSvg3cec9324aa" d="M 6135.773 4779.644 C 6136.416 4780.358 6136.993 4780.201 6137.655 4779.626 C 6138.177 4779.181 6138.801 4778.967 6139.024 4780.08 C 6140.021 4779.134 6141.093 4778.318 6141.885 4777.289 C 6142.434 4776.565 6142.975 4775.759 6142.313 4774.553 C 6141.652 4773.338 6141.26 4772.049 6139.947 4771.307 C 6139.583 4771.103 6139.406 4770.584 6139.024 4770.027 C 6138.633 4770.602 6138.344 4771.02 6138.065 4771.437 C 6136.416 4771.205 6135.978 4771.474 6135.195 4773.004 C 6134.981 4773.4220000000005 6134.646 4773.857 6134.245 4774.071 C 6133.323 4774.571 6133.127 4775.146 6133.537 4776.12 C 6133.835 4776.825 6134.105 4777.548 6134.506 4777.984 C 6134.935 4778.466 6135.298 4778.995 6135.689 4779.514 C 6135.95 4779.208 6136.211 4778.902 6136.472 4778.596 C 6136.584 4778.735 6136.695 4778.874 6136.807 4779.014C 6136.472 4779.218 6136.127 4779.431 6135.773 4779.644Z"></path><path fill="#B91925" stroke="none" fill-opacity="1" stroke-width="1" stroke-opacity="1" id="tSvg4a9bfb5d86" d="M 6145.164 4793.481 C 6144.94 4793.221 6144.726 4792.952 6144.484 4792.711 C 6144.074 4792.312 6143.515 4791.969 6143.077 4792.47 C 6142.639 4792.961 6142.341 4793.341 6141.68 4792.887 C 6141.624 4792.85 6141.26 4793.1 6141.27 4793.156 C 6141.512 4794.195 6140.385 4794.176 6140.031 4794.807 C 6140.487 4795.317 6140.636 4795.799 6140.096 4796.476 C 6139.481 4797.264 6139.658 4798.878 6140.347 4799.499 C 6140.673 4799.796 6141.195 4799.954 6141.652 4799.991 C 6142.071 4800.019 6142.518 4799.796 6142.947 4799.7029999999995 C 6143.291 4799.629 6143.636 4799.564 6143.981 4799.499 C 6145.052 4797.607 6145.313 4795.567 6145.145 4793.443C 6145.136 4793.4529999999995 6145.164 4793.481 6145.164 4793.481Z"></path><path fill="#B91925" stroke="none" fill-opacity="1" stroke-width="1" stroke-opacity="1" id="tSvgbbb666a77e" d="M 6163.219 4778.439 C 6163.321 4778.893 6163.489 4779.227 6163.452 4779.542 C 6163.293 4780.943 6163.275 4780.942 6164.598 4781.091 C 6164.793 4781.573 6165.045 4782.055 6165.184 4782.565 C 6165.436 4783.428 6166.181 4783.539 6166.861 4783.752 C 6167.448 4783.938 6168.222 4783.168 6168.715 4784.105 C 6168.753 4784.17 6169.461 4783.873 6169.898 4783.734 C 6169.703 4783.233 6169.386 4782.779 6169.349 4782.296 C 6169.209 4780.358 6167.998 4778.55 6166.256 4778.216C 6165.371 4778.049 6164.374 4778.346 6163.219 4778.439Z"></path><path fill="#B91925" stroke="none" fill-opacity="1" stroke-width="1" stroke-opacity="1" id="tSvg7f4209c7b2" d="M 6164.076 4757.22 C 6163.685 4757.304 6163.014 4757.276 6162.939 4757.48 C 6162.473 4758.676 6160.843 4758.676 6160.387 4760.123 C 6161.048 4760.123 6161.598 4760.123 6162.138 4760.123 C 6162.604 4761.681 6160.852 4761.412 6160.452 4762.349 C 6160.946 4762.349 6161.467 4762.423 6161.961 4762.33 C 6162.706 4762.182 6163.834 4762.358 6163.386 4760.902 C 6163.312 4760.661 6163.806 4760.253 6164.113 4759.817 C 6163.666 4759.65 6163.303 4759.511 6162.976 4759.39 C 6163.424 4758.769 6163.871 4758.166 6164.309 4757.554C 6164.234 4757.443 6164.15 4757.332 6164.076 4757.22Z"></path><path fill="#B91925" stroke="none" fill-opacity="1" stroke-width="1" stroke-opacity="1" id="tSvg16a9dc6c17f" d="M 6093.952 4672.023 C 6093.859 4672.375 6093.757 4672.718 6093.664 4673.071 C 6093.794 4673.098 6093.924 4673.117 6094.046 4673.145 C 6094.083 4672.783 6094.111 4672.431 6094.148 4672.069C 6094.083 4672.051 6094.018 4672.041 6093.952 4672.023Z"></path><path fill="#B91925" stroke="none" fill-opacity="1" stroke-width="1" stroke-opacity="1" id="tSvg5ef1d04940" d="M 6145.164 4793.481 C 6145.154666666666 4793.471666666666 6145.145333333333 4793.462333333333 6145.136 4793.4529999999995 C 6145.369 4793.295 6145.602 4793.147 6145.825 4792.989 C 6145.686 4792.887 6145.536 4792.692 6145.415 4792.711C 6144.903 4792.794 6144.894 4793.1 6145.164 4793.481Z"></path><path fill="#B91925" stroke="none" fill-opacity="1" stroke-width="1" stroke-opacity="1" id="tSvg182438f65e2" d="M 6115.016 4660.208 C 6115.016 4660.867 6115.016 4661.108 6115.016 4661.339 C 6115.091 4661.339 6115.2119999999995 4661.377 6115.249 4661.33 C 6115.51 4661.089 6115.715 4660.774 6116.004 4660.579 C 6117.159 4659.791 6117.513 4658.613 6117.541 4657.333 C 6117.578 4655.868 6117.541 4654.403 6117.457 4652.947 C 6117.439 4652.576 6117.178 4652.168 6116.926 4651.862 C 6116.451 4651.268 6115.911 4650.73 6115.324 4650.072 C 6114.839 4650.396 6114.364 4650.7119999999995 6113.852 4651.064 C 6113.554 4650.795 6113.246 4650.508 6113.088 4650.359 C 6112.156 4650.424 6111.365 4650.489 6110.517 4650.554 C 6110.097 4651.073 6110.209 4651.834 6109.771 4652.474 C 6109.352 4653.095 6109.734 4654.347 6109.967 4655.284 C 6110.191 4656.202 6110.684 4657.046 6111.001 4657.945 C 6111.355 4658.956 6111.597 4660.013 6111.979 4661.015 C 6112.11 4661.349 6112.445 4661.766 6112.762 4661.84 C 6113.172 4661.942 6113.694 4661.914 6113.805 4661.173C 6113.861 4660.848 6114.467 4660.625 6115.016 4660.208Z"></path><path fill="#B91925" stroke="none" fill-opacity="1" stroke-width="1" stroke-opacity="1" id="tSvg4b4544d783" d="M 6134.012 4679.757 C 6134.022 4680.48 6134.525 4680.304 6134.925 4680.211 C 6135.559 4680.063 6136.174 4679.813 6136.807 4679.683 C 6137.385 4679.562 6137.981 4679.553 6138.736 4679.47 C 6138.4 4678.412 6138.689 4677.058 6137.599 4676.641 C 6137.049 4676.437 6136.211 4675.269 6135.289 4676.632 C 6134.758 4675.612 6134.282 4674.684 6133.761 4673.673 C 6133.444 4673.711 6133.034 4673.766 6132.531 4673.831 C 6132.606 4674.341 6132.671 4674.786 6132.755 4675.352 C 6132.158 4675.352 6131.665 4675.352 6131.171 4675.352 C 6130.547 4677.921 6131.311 4679.08 6134.031 4679.757 C 6133.649 4678.987 6133.472 4678.292 6134.823 4677.949C 6134.497 4678.672 6134.255 4679.21 6134.012 4679.757Z"></path><path fill="#B91925" stroke="none" fill-opacity="1" stroke-width="1" stroke-opacity="1" id="tSvg6126c3b382" d="M 6117.066 4703.386 C 6117.057 4702.617 6117.69 4701.754 6116.945 4700.79 C 6115.808 4699.315 6113.805 4699.093 6112.482 4700.41 C 6112.194 4700.697 6111.905 4701.003 6111.569 4701.235 C 6110.554 4701.94 6110.349 4702.533 6111.113 4703.442 C 6111.672 4704.11 6112.417 4704.675 6113.181 4705.121 C 6113.479 4705.297 6114.103 4705.102 6114.485 4704.907C 6115.343 4704.481 6116.134 4703.952 6117.066 4703.386Z"></path><path fill="#B91925" stroke="none" fill-opacity="1" stroke-width="1" stroke-opacity="1" id="tSvgc3d177d4ee" d="M 6129.662 4723.344 C 6129.168 4724.586 6128.777 4725.523 6129.932 4726.589 C 6130.919 4727.498 6131.758 4727.507 6132.848 4727.072 C 6133.994 4726.608 6134.096 4725.56 6134.338 4724.595 C 6134.599 4723.548 6133.565 4723.177 6133.099 4722.509 C 6132.997 4722.361 6132.242 4722.398 6132.158 4722.546C 6131.59 4723.575 6130.63 4723.334 6129.662 4723.344Z"></path><path fill="#B91925" stroke="none" fill-opacity="1" stroke-width="1" stroke-opacity="1" id="tSvg7bd69ea9b4" d="M 6138.177 4661.182 C 6139.77 4661.989 6141.195 4662.7119999999995 6142.779 4663.528 C 6142.872 4662.7119999999995 6142.853 4662.146 6143.002 4661.618 C 6143.44 4660.041 6142.732 4659.021 6141.512 4658.168 C 6140.972 4657.7880000000005 6140.45 4657.723 6140.077 4658.242C 6139.406 4659.151 6138.838 4660.143 6138.177 4661.182Z M 6141.27 4660.152 C 6141.596 4659.883 6141.894 4659.642 6142.388 4659.234 C 6142.425 4660.078 6142.453 4660.635 6142.49 4661.636C 6141.912 4660.941 6141.596 4660.551 6141.27 4660.152Z"></path><path fill="#B91925" stroke="none" fill-opacity="1" stroke-width="1" stroke-opacity="1" id="tSvg4fd4b1bcd" d="M 6098.927 4668.703 C 6098.965 4669.445 6099.002 4670.187 6099.048 4670.928 C 6099.132 4670.928 6099.216 4670.928 6099.3 4670.928 C 6099.3 4670.168 6099.3 4669.408 6099.3 4668.647C 6099.17 4668.666 6099.048 4668.684 6098.927 4668.703Z"></path><path fill="#B91925" stroke="none" fill-opacity="1" stroke-width="1" stroke-opacity="1" id="tSvg16f6c8b03f" d="M 6098.955 4664.057 C 6099.3 4664.001 6099.654 4663.955 6100.11 4663.88 C 6099.924 4663.296 6099.756 4662.777 6099.505 4661.998 C 6099.291 4662.907 6099.142 4663.51 6099.002 4664.103C 6099.002 4664.112 6098.955 4664.057 6098.955 4664.057Z"></path><defs> </defs></svg> 